<?xml version="1.0" encoding="UTF-8"?>
<!DOCTYPE svg PUBLIC "-//W3C//DTD SVG 1.1//EN" "http://www.w3.org/Graphics/SVG/1.1/DTD/svg11.dtd">
<svg xmlns="http://www.w3.org/2000/svg" version="1.1" width="45px" height="53px" style="shape-rendering:geometricPrecision; text-rendering:geometricPrecision; image-rendering:optimizeQuality; fill-rule:evenodd; clip-rule:evenodd" xmlns:xlink="http://www.w3.org/1999/xlink">
<g><path style="opacity:0.771" fill="#77d1d5" d="M 1.5,-0.5 C 6.5,-0.5 11.5,-0.5 16.5,-0.5C 16.7828,0.28913 17.2828,0.955796 18,1.5C 18.3333,5.83333 18.6667,10.1667 19,14.5C 21.6916,9.09743 24.8583,4.09743 28.5,-0.5C 33.8333,-0.5 39.1667,-0.5 44.5,-0.5C 44.5,2.5 44.5,5.5 44.5,8.5C 43.5041,8.41423 42.6708,8.74756 42,9.5C 39.2928,14.4155 36.4594,19.2488 33.5,24C 36.7981,31.431 40.4648,38.5976 44.5,45.5C 44.5,47.8333 44.5,50.1667 44.5,52.5C 38.1667,52.5 31.8333,52.5 25.5,52.5C 23.4387,47.1554 21.2721,41.8221 19,36.5C 18.7849,41.9151 18.2849,47.2484 17.5,52.5C 11.8333,52.5 6.16667,52.5 0.5,52.5C 0.5,51.8333 0.166667,51.5 -0.5,51.5C -0.5,34.8333 -0.5,18.1667 -0.5,1.5C 0.5,1.16667 1.16667,0.5 1.5,-0.5 Z"/></g>
<g><path style="opacity:1" fill="#82d5d8" d="M 28.5,2.5 C 33.3477,1.18635 38.3477,1.18635 43.5,2.5C 43.3764,3.10667 43.0431,3.44001 42.5,3.5C 38.03,2.51388 33.3633,2.18054 28.5,2.5 Z"/></g>
<g><path style="opacity:1" fill="#a2e0e0" d="M 2.5,2.5 C 6.83333,2.5 11.1667,2.5 15.5,2.5C 15.5,3.5 15.5,4.5 15.5,5.5C 11.1667,5.5 6.83333,5.5 2.5,5.5C 2.5,4.5 2.5,3.5 2.5,2.5 Z"/></g>
<g><path style="opacity:1" fill="#9edfdf" d="M 28.5,2.5 C 33.3633,2.18054 38.03,2.51388 42.5,3.5C 38.2546,4.87722 33.9213,6.04389 29.5,7C 26.1237,12.2532 22.6237,17.4198 19,22.5C 18.6012,22.2716 18.4346,21.9382 18.5,21.5C 21.5658,15.0356 24.8991,8.70223 28.5,2.5 Z"/></g>
<g><path style="opacity:1" fill="#97dcdc" d="M 2.5,2.5 C 2.5,3.5 2.5,4.5 2.5,5.5C 6.83333,5.5 11.1667,5.5 15.5,5.5C 15.5,19.1667 15.5,32.8333 15.5,46.5C 10.8333,46.5 6.16667,46.5 1.5,46.5C 1.17065,31.6572 1.50398,16.9905 2.5,2.5 Z"/></g>
<g><path style="opacity:1" fill="#98dcdc" d="M 42.5,3.5 C 42.1667,4.16667 41.8333,4.83333 41.5,5.5C 39.7162,5.89254 38.0495,6.5592 36.5,7.5C 32.5519,11.3559 29.5519,16.0226 27.5,21.5C 28.5213,23.188 29.8546,24.5213 31.5,25.5C 35.7119,33.2567 39.3786,41.2567 42.5,49.5C 41.609,48.8902 40.609,48.5569 39.5,48.5C 39.0269,47.0937 38.0269,46.427 36.5,46.5C 34.4437,45.7839 32.277,45.1172 30,44.5C 27.2545,38.0848 24.4212,31.7514 21.5,25.5C 20.2638,24.7542 18.9305,24.4208 17.5,24.5C 16.4937,24.0623 16.4937,23.3957 17.5,22.5C 17.5,21.8333 17.8333,21.5 18.5,21.5C 18.4346,21.9382 18.6012,22.2716 19,22.5C 22.6237,17.4198 26.1237,12.2532 29.5,7C 33.9213,6.04389 38.2546,4.87722 42.5,3.5 Z"/></g>
<g><path style="opacity:1" fill="#8dcecf" d="M 41.5,5.5 C 38.1545,11.5272 34.8212,17.5272 31.5,23.5C 30.3775,21.7116 30.2109,19.7116 31,17.5C 33.1118,14.2729 34.9451,10.9396 36.5,7.5C 38.0495,6.5592 39.7162,5.89254 41.5,5.5 Z"/></g>
<g><path style="opacity:1" fill="#94d8d8" d="M 36.5,7.5 C 34.9451,10.9396 33.1118,14.2729 31,17.5C 30.2109,19.7116 30.3775,21.7116 31.5,23.5C 31.5,24.1667 31.5,24.8333 31.5,25.5C 29.8546,24.5213 28.5213,23.188 27.5,21.5C 29.5519,16.0226 32.5519,11.3559 36.5,7.5 Z"/></g>
<g><path style="opacity:1" fill="#94d7d7" d="M 17.5,24.5 C 18.9305,24.4208 20.2638,24.7542 21.5,25.5C 24.4212,31.7514 27.2545,38.0848 30,44.5C 32.277,45.1172 34.4437,45.7839 36.5,46.5C 33.5,46.5 30.5,46.5 27.5,46.5C 25.9796,41.1069 24.1463,35.7736 22,30.5C 21.5017,28.4556 20.335,27.1223 18.5,26.5C 17.8333,26.5 17.5,26.1667 17.5,25.5C 17.5,25.1667 17.5,24.8333 17.5,24.5 Z"/></g>
<g><path style="opacity:1" fill="#8ecfcf" d="M 18.5,26.5 C 20.335,27.1223 21.5017,28.4556 22,30.5C 24.1463,35.7736 25.9796,41.1069 27.5,46.5C 30.5,46.5 33.5,46.5 36.5,46.5C 38.0269,46.427 39.0269,47.0937 39.5,48.5C 35.3998,48.2367 31.3998,48.5701 27.5,49.5C 23.7034,42.2252 20.7034,34.5585 18.5,26.5 Z"/></g>
<g><path style="opacity:1" fill="#86d5d7" d="M 15.5,2.5 C 16.1667,9.16667 16.8333,15.8333 17.5,22.5C 16.4937,23.3957 16.4937,24.0623 17.5,24.5C 17.5,24.8333 17.5,25.1667 17.5,25.5C 16.8333,33.8333 16.1667,42.1667 15.5,50.5C 15.5,50.1667 15.5,49.8333 15.5,49.5C 15.5,48.8333 15.5,48.1667 15.5,47.5C 15.5,47.1667 15.5,46.8333 15.5,46.5C 15.5,32.8333 15.5,19.1667 15.5,5.5C 15.5,4.5 15.5,3.5 15.5,2.5 Z"/></g>
<g><path style="opacity:0.035" fill="#76d1d4" d="M 44.5,35.5 C 44.5,36.1667 44.5,36.8333 44.5,37.5C 43.1667,36.8333 43.1667,36.1667 44.5,35.5 Z"/></g>
<g><path style="opacity:1" fill="#8dcfd0" d="M 1.5,46.5 C 6.16667,46.5 10.8333,46.5 15.5,46.5C 15.5,46.8333 15.5,47.1667 15.5,47.5C 10.706,46.9031 6.37267,47.5698 2.5,49.5C 2.5,49.8333 2.5,50.1667 2.5,50.5C 1.56552,49.4324 1.23219,48.099 1.5,46.5 Z"/></g>
<g><path style="opacity:1" fill="#89c8c8" d="M 15.5,47.5 C 15.5,48.1667 15.5,48.8333 15.5,49.5C 11.1985,48.2271 6.86519,48.2271 2.5,49.5C 6.37267,47.5698 10.706,46.9031 15.5,47.5 Z"/></g>
<g><path style="opacity:1" fill="#80c0c1" d="M 15.5,49.5 C 15.5,49.8333 15.5,50.1667 15.5,50.5C 11.1667,50.5 6.83333,50.5 2.5,50.5C 2.5,50.1667 2.5,49.8333 2.5,49.5C 6.86519,48.2271 11.1985,48.2271 15.5,49.5 Z"/></g>
<g><path style="opacity:1" fill="#81c1c2" d="M 39.5,48.5 C 40.609,48.5569 41.609,48.8902 42.5,49.5C 37.5,50.8333 32.5,50.8333 27.5,49.5C 31.3998,48.5701 35.3998,48.2367 39.5,48.5 Z"/></g>
</svg>
