<?xml version="1.0" encoding="UTF-8"?>
<!DOCTYPE svg PUBLIC "-//W3C//DTD SVG 1.1//EN" "http://www.w3.org/Graphics/SVG/1.1/DTD/svg11.dtd">
<svg xmlns="http://www.w3.org/2000/svg" version="1.1" width="385px" height="60px" style="shape-rendering:geometricPrecision; text-rendering:geometricPrecision; image-rendering:optimizeQuality; fill-rule:evenodd; clip-rule:evenodd" xmlns:xlink="http://www.w3.org/1999/xlink">
<g><path style="opacity:0.762" fill="#73cfd3" d="M 291.5,1.5 C 302.56,1.27845 305.893,6.27845 301.5,16.5C 301.808,17.3081 302.308,17.9747 303,18.5C 303.821,31.0756 303.655,43.5756 302.5,56C 297.5,56.6667 292.5,56.6667 287.5,56C 287,55.5 286.5,55 286,54.5C 285.333,42.5 285.333,30.5 286,18.5C 286.833,17.6667 287.667,16.8333 288.5,16C 284.377,10.1833 285.377,5.34994 291.5,1.5 Z"/></g>
<g><path style="opacity:0.799" fill="#77d1d5" d="M 99.5,2.5 C 109.665,0.999811 117.165,4.66648 122,13.5C 123.115,20.9256 123.615,28.4256 123.5,36C 123.491,42.7438 123.158,49.4105 122.5,56C 116.584,56.8072 110.75,56.6406 105,55.5C 104.667,44.1667 104.333,32.8333 104,21.5C 103.667,32.5 103.333,43.5 103,54.5C 102.5,55 102,55.5 101.5,56C 95.9162,56.8056 90.4162,56.6389 85,55.5C 84.3333,42.5 84.3333,29.5 85,16.5C 87.115,8.88286 91.9483,4.2162 99.5,2.5 Z"/></g>
<g><path style="opacity:0.76" fill="#77d1d4" d="M 181.5,2.5 C 203.046,1.73393 214.046,11.7339 214.5,32.5C 209.29,55.0882 195.624,62.5882 173.5,55C 159.813,45.6002 155.979,33.1002 162,17.5C 166.645,10.0135 173.145,5.01347 181.5,2.5 Z M 184.5,21.5 C 186.989,21.2978 189.323,21.7978 191.5,23C 196.185,28.0656 195.851,33.0656 190.5,38C 180.798,39.1089 177.298,34.9423 180,25.5C 181.397,23.9297 182.897,22.5964 184.5,21.5 Z"/></g>
<g><path style="opacity:0.796" fill="#76d1d4" d="M 140.5,3.5 C 145.844,3.33398 151.177,3.50065 156.5,4C 157,4.5 157.5,5 158,5.5C 158.667,10.8333 158.667,16.1667 158,21.5C 157.5,22 157,22.5 156.5,23C 157.833,28 157.833,33 156.5,38C 157,38.5 157.5,39 158,39.5C 158.806,45.0838 158.639,50.5838 157.5,56C 150.086,56.8903 142.753,56.557 135.5,55C 130.938,53.3729 128.105,50.2062 127,45.5C 126.333,35.5 126.333,25.5 127,15.5C 129.196,8.79848 133.696,4.79848 140.5,3.5 Z"/></g>
<g><path style="opacity:0.763" fill="#76d0d4" d="M 218.5,3.5 C 223.511,3.33407 228.511,3.50074 233.5,4C 234,4.5 234.5,5 235,5.5C 235.333,9.83333 235.667,14.1667 236,18.5C 238.558,13.2024 241.725,8.36902 245.5,4C 255.973,3.97582 266.307,3.97582 276.5,4C 277,4.5 277.5,5 278,5.5C 278.499,9.48617 278.666,13.4862 278.5,17.5C 280.722,17.178 282.556,17.8446 284,19.5C 284.667,24.5 284.667,29.5 284,34.5C 276.877,35.9431 276.877,37.6098 284,39.5C 288.266,58.2492 282.433,62.4158 266.5,52C 263.485,49.1366 261.651,45.6366 261,41.5C 260.667,31.8333 260.333,22.1667 260,12.5C 256.708,17.5832 253.541,22.7498 250.5,28C 254.189,35.8792 258.023,43.7126 262,51.5C 262.667,52.8333 262.667,54.1667 262,55.5C 255.582,56.6433 249.082,56.81 242.5,56C 240.338,50.8503 238.171,45.6837 236,40.5C 235.807,45.7503 235.307,50.917 234.5,56C 228.833,56.6667 223.167,56.6667 217.5,56C 216.342,39.2406 216.175,22.4073 217,5.5C 217.717,4.9558 218.217,4.28913 218.5,3.5 Z"/></g>
<g><path style="opacity:1" fill="#4ab7bd" d="M 300.5,12.5 C 300.5,12.1667 300.5,11.8333 300.5,11.5C 300.5,10.5 300.5,9.5 300.5,8.5C 296.5,8.5 292.5,8.5 288.5,8.5C 292.108,2.35055 296.275,2.01721 301,7.5C 301.78,9.38695 301.613,11.0536 300.5,12.5 Z"/></g>
<g><path style="opacity:1" fill="#98dcdc" d="M 121.5,50.5 C 116.833,50.5 112.167,50.5 107.5,50.5C 107.186,39.3141 107.686,28.3141 109,17.5C 106.503,15.5218 103.669,15.0218 100.5,16C 97.0312,19.1299 97.0312,21.9633 100.5,24.5C 100.5,33.1667 100.5,41.8333 100.5,50.5C 95.8333,50.5 91.1667,50.5 86.5,50.5C 86.0625,38.4242 86.5625,26.4242 88,14.5C 91.5632,7.96811 97.0632,4.96811 104.5,5.5C 111.773,4.95075 116.939,7.95075 120,14.5C 121.438,26.4242 121.938,38.4242 121.5,50.5 Z"/></g>
<g><path style="opacity:1" fill="#99dddd" d="M 210.5,22.5 C 210.565,22.9382 210.399,23.2716 210,23.5C 206.589,22.7069 203.089,22.2069 199.5,22C 195.912,15.8709 190.579,13.8709 183.5,16C 179.52,17.0875 176.353,19.2542 174,22.5C 173.411,25.6455 174.245,28.3122 176.5,30.5C 179.284,41.9795 185.451,44.3128 195,37.5C 196.202,35.3225 196.702,32.9892 196.5,30.5C 201.547,30.3375 206.547,30.6708 211.5,31.5C 211.768,33.099 211.434,34.4324 210.5,35.5C 209.325,35.281 208.325,35.6143 207.5,36.5C 205.42,38.9928 203.586,41.6595 202,44.5C 198.013,48.8426 193.013,50.8426 187,50.5C 180.17,50.8752 174.504,48.5418 170,43.5C 166.325,37.5056 163.825,31.1723 162.5,24.5C 166.144,11.7494 174.644,5.08268 188,4.5C 199.561,5.57267 207.061,11.5727 210.5,22.5 Z"/></g>
<g><path style="opacity:1" fill="#99dcdc" d="M 156.5,16.5 C 152.119,16.3718 147.785,16.7051 143.5,17.5C 143.263,18.791 143.596,19.791 144.5,20.5C 143.316,21.6879 143.316,22.8545 144.5,24C 148.152,24.4986 151.818,24.6653 155.5,24.5C 155.5,26.8333 155.5,29.1667 155.5,31.5C 150.752,31.2748 146.085,31.7748 141.5,33C 139.957,35.0449 140.29,36.5449 142.5,37.5C 142.414,38.4959 142.748,39.3292 143.5,40C 147.821,40.499 152.154,40.6657 156.5,40.5C 156.5,41.8333 156.5,43.1667 156.5,44.5C 155.549,45.9187 155.216,47.5853 155.5,49.5C 150.156,49.666 144.823,49.4994 139.5,49C 135.771,47.7451 132.438,45.9118 129.5,43.5C 128.343,34.6762 128.176,25.6762 129,16.5C 130.105,11.7938 132.938,8.62712 137.5,7C 143.825,6.50046 150.158,6.33379 156.5,6.5C 156.5,9.83333 156.5,13.1667 156.5,16.5 Z"/></g>
<g><path style="opacity:1" fill="#97dcdc" d="M 232.5,50.5 C 227.833,50.5 223.167,50.5 218.5,50.5C 218.5,35.8333 218.5,21.1667 218.5,6.5C 223.167,6.5 227.833,6.5 232.5,6.5C 232.5,21.1667 232.5,35.8333 232.5,50.5 Z"/></g>
<g><path style="opacity:1" fill="#99dcdc" d="M 258.5,9.5 C 253.996,10.0569 250.83,12.3902 249,16.5C 247.5,19.5 246,22.5 244.5,25.5C 245.521,27.188 246.855,28.5213 248.5,29.5C 252.712,37.2567 256.379,45.2567 259.5,53.5C 254.965,50.7727 249.965,49.7727 244.5,50.5C 242.98,45.1069 241.146,39.7736 239,34.5C 238.502,32.4556 237.335,31.1223 235.5,30.5C 234.733,29.828 234.066,28.9947 233.5,28C 237.5,21 241.5,14 245.5,7C 250.202,6.17169 254.869,6.33836 259.5,7.5C 259.137,8.18346 258.804,8.85013 258.5,9.5 Z"/></g>
<g><path style="opacity:1" fill="#4bb8be" d="M 275.5,8.5 C 271.566,9.35968 267.566,9.69302 263.5,9.5C 263.5,19.8333 263.5,30.1667 263.5,40.5C 262.505,29.3456 262.172,18.0123 262.5,6.5C 267.294,5.9031 271.627,6.56977 275.5,8.5 Z"/></g>
<g><path style="opacity:1" fill="#38afb6" d="M 275.5,8.5 C 275.5,12.1667 275.5,15.8333 275.5,19.5C 277.5,19.5 279.5,19.5 281.5,19.5C 281.5,24.1667 281.5,28.8333 281.5,33.5C 279.833,33.5 278.167,33.5 276.5,33.5C 276.338,35.5273 276.505,37.5273 277,39.5C 277.671,40.2524 278.504,40.5858 279.5,40.5C 281.298,43.8309 281.964,47.4975 281.5,51.5C 276.424,50.8256 271.757,49.159 267.5,46.5C 266.893,46.6236 266.56,46.9569 266.5,47.5C 264.707,45.5739 263.707,43.2406 263.5,40.5C 263.5,30.1667 263.5,19.8333 263.5,9.5C 267.566,9.69302 271.566,9.35968 275.5,8.5 Z"/></g>
<g><path style="opacity:1" fill="#37acb3" d="M 288.5,8.5 C 292.5,8.5 296.5,8.5 300.5,8.5C 300.5,9.5 300.5,10.5 300.5,11.5C 296.613,11.6459 292.946,12.3126 289.5,13.5C 288.549,12.0813 288.216,10.4147 288.5,8.5 Z"/></g>
<g><path style="opacity:1" fill="#36a1a7" d="M 300.5,11.5 C 300.5,11.8333 300.5,12.1667 300.5,12.5C 297.231,17.4216 293.565,17.7549 289.5,13.5C 292.946,12.3126 296.613,11.6459 300.5,11.5 Z"/></g>
<g><path style="opacity:0.757" fill="#73cfd3" d="M 16.5,16.5 C 28.4832,14.4914 37.1499,18.8247 42.5,29.5C 50.3664,15.9644 61.3664,12.7978 75.5,20C 86.4662,31.6465 86.1329,42.9799 74.5,54C 60.4407,60.6548 49.7741,57.1548 42.5,43.5C 35.2702,57.2987 24.6035,60.7987 10.5,54C 0.221621,44.4995 -0.945045,33.9995 7,22.5C 9.84261,19.8373 13.0093,17.8373 16.5,16.5 Z M 22.5,33.5 C 23.6828,34.5045 25.0161,35.3378 26.5,36C 24.5734,40.092 22.2401,40.4253 19.5,37C 20.365,35.6412 21.365,34.4745 22.5,33.5 Z M 62.5,33.5 C 66.2106,35.2424 66.3773,37.2424 63,39.5C 58.7087,37.9287 58.542,35.9287 62.5,33.5 Z"/></g>
<g><path style="opacity:1" fill="#90d3d3" d="M 210.5,22.5 C 211.124,22.9169 211.457,23.5836 211.5,24.5C 211.253,25.7133 210.586,26.38 209.5,26.5C 209.586,25.5041 209.252,24.6708 208.5,24C 204.833,23.6667 201.167,23.3333 197.5,23C 193.61,18.1476 188.61,16.481 182.5,18C 180.937,18.7589 179.937,19.9256 179.5,21.5C 177.647,24.2084 176.647,27.2084 176.5,30.5C 174.245,28.3122 173.411,25.6455 174,22.5C 176.353,19.2542 179.52,17.0875 183.5,16C 190.579,13.8709 195.912,15.8709 199.5,22C 203.089,22.2069 206.589,22.7069 210,23.5C 210.399,23.2716 210.565,22.9382 210.5,22.5 Z"/></g>
<g><path style="opacity:0.793" fill="#73cfd3" d="M 319.5,16.5 C 333.518,14.3856 342.351,20.0523 346,33.5C 350.363,17.5688 360.196,12.7355 375.5,19C 378.869,21.3649 381.036,24.5315 382,28.5C 382.667,37.5 382.667,46.5 382,55.5C 376.667,56.8333 371.333,56.8333 366,55.5C 365.667,48.5 365.333,41.5 365,34.5C 364.815,41.7466 364.315,48.9133 363.5,56C 358.5,56.6667 353.5,56.6667 348.5,56C 348,55.5 347.5,55 347,54.5C 346.667,49.5 346.333,44.5 346,39.5C 340.676,56.4088 329.843,61.2421 313.5,54C 303.399,45.0894 301.899,34.9227 309,23.5C 312.154,20.4884 315.654,18.1551 319.5,16.5 Z M 324.5,33.5 C 329.116,35.5121 329.283,37.5121 325,39.5C 321.924,37.6994 321.758,35.6994 324.5,33.5 Z"/></g>
<g><path style="opacity:1" fill="#87c8c9" d="M 156.5,16.5 C 156.5,17.8333 156.5,19.1667 156.5,20.5C 152.5,20.5 148.5,20.5 144.5,20.5C 143.596,19.791 143.263,18.791 143.5,17.5C 147.785,16.7051 152.119,16.3718 156.5,16.5 Z"/></g>
<g><path style="opacity:1" fill="#49b7bd" d="M 300.5,54.5 C 300.5,53.1667 300.5,51.8333 300.5,50.5C 300.5,41.1667 300.5,31.8333 300.5,22.5C 296.5,22.5 292.5,22.5 288.5,22.5C 288.5,21.5 288.5,20.5 288.5,19.5C 292.833,19.5 297.167,19.5 301.5,19.5C 301.828,31.3453 301.495,43.012 300.5,54.5 Z"/></g>
<g><path style="opacity:1" fill="#91d4d4" d="M 258.5,9.5 C 255.597,14.9708 252.43,20.3041 249,25.5C 248.51,26.7932 248.343,28.1266 248.5,29.5C 246.855,28.5213 245.521,27.188 244.5,25.5C 246,22.5 247.5,19.5 249,16.5C 250.83,12.3902 253.996,10.0569 258.5,9.5 Z"/></g>
<g><path style="opacity:1" fill="#48b7bd" d="M 342.5,30.5 C 341.448,30.6495 340.448,30.4828 339.5,30C 333.169,22.2494 325.502,20.5827 316.5,25C 313.335,27.3347 310.335,29.8347 307.5,32.5C 313.315,18.6156 322.982,15.1156 336.5,22C 339.523,24.1775 341.523,27.0108 342.5,30.5 Z"/></g>
<g><path style="opacity:1" fill="#41b4ba" d="M 380.5,33.5 C 379.577,34.3029 378.577,34.4696 377.5,34C 369.844,20.5215 361.844,20.1881 353.5,33C 352.207,33.49 350.873,33.6567 349.5,33.5C 353.032,18.5729 361.699,14.7396 375.5,22C 378.406,25.3106 380.073,29.144 380.5,33.5 Z"/></g>
<g><path style="opacity:1" fill="#38afb6" d="M 39.5,30.5 C 40.404,31.209 40.7373,32.209 40.5,33.5C 39.1667,33.5 37.8333,33.5 36.5,33.5C 36.9175,32.7784 37.5842,32.2784 38.5,32C 37.5,31.6667 36.5,31.3333 35.5,31C 29.741,30.188 24.741,30.3547 20.5,31.5C 18.1663,33.1757 17.1663,35.509 17.5,38.5C 17.687,40.5643 18.187,42.5643 19,44.5C 22.6824,46.1373 25.8491,45.4706 28.5,42.5C 32.1073,41.5108 35.774,41.1774 39.5,41.5C 39.5,41.8333 39.5,42.1667 39.5,42.5C 37.7376,42.3573 36.0709,42.6906 34.5,43.5C 30.1467,49.0853 24.48,50.9186 17.5,49C 12.9336,46.7217 9.60028,43.2217 7.5,38.5C 6.64314,37.5748 5.64314,36.9081 4.5,36.5C 4.5,35.1667 4.5,33.8333 4.5,32.5C 7.91856,30.5884 10.9186,28.0884 13.5,25C 22.2246,20.6912 29.7246,22.1912 36,29.5C 37.1385,29.9891 38.3052,30.3225 39.5,30.5 Z"/></g>
<g><path style="opacity:1" fill="#38afb6" d="M 80.5,32.5 C 80.665,35.8499 80.4983,39.1832 80,42.5C 79.7679,43.7375 79.2679,44.7375 78.5,45.5C 78.5654,45.0618 78.3988,44.7284 78,44.5C 68.3381,53.3756 58.3381,53.709 48,45.5C 47.6012,45.7284 47.4346,46.0618 47.5,46.5C 44.9103,42.3068 43.9103,37.6401 44.5,32.5C 48.2543,30.2524 51.5876,27.419 54.5,24C 60.3311,21.7714 65.9978,22.1047 71.5,25C 74.6653,27.3347 77.6653,29.8347 80.5,32.5 Z M 62.5,33.5 C 58.542,35.9287 58.7087,37.9287 63,39.5C 66.3773,37.2424 66.2106,35.2424 62.5,33.5 Z"/></g>
<g><path style="opacity:1" fill="#85c3c3" d="M 209.5,26.5 C 205.154,26.6657 200.821,26.499 196.5,26C 192.246,19.2576 186.579,17.7576 179.5,21.5C 179.937,19.9256 180.937,18.7589 182.5,18C 188.61,16.481 193.61,18.1476 197.5,23C 201.167,23.3333 204.833,23.6667 208.5,24C 209.252,24.6708 209.586,25.5041 209.5,26.5 Z"/></g>
<g><path style="opacity:1" fill="#37afb6" d="M 288.5,22.5 C 292.5,22.5 296.5,22.5 300.5,22.5C 300.5,31.8333 300.5,41.1667 300.5,50.5C 296.5,50.5 292.5,50.5 288.5,50.5C 288.5,41.1667 288.5,31.8333 288.5,22.5 Z"/></g>
<g><path style="opacity:1" fill="#39b0b6" d="M 342.5,30.5 C 343.833,34.5 343.833,38.5 342.5,42.5C 342.565,42.0618 342.399,41.7284 342,41.5C 330.967,54.6284 319.967,54.6284 309,41.5C 308.601,41.7284 308.435,42.0618 308.5,42.5C 307.521,39.3752 307.187,36.0419 307.5,32.5C 310.335,29.8347 313.335,27.3347 316.5,25C 325.502,20.5827 333.169,22.2494 339.5,30C 340.448,30.4828 341.448,30.6495 342.5,30.5 Z M 324.5,33.5 C 321.758,35.6994 321.924,37.6994 325,39.5C 329.283,37.5121 329.116,35.5121 324.5,33.5 Z"/></g>
<g><path style="opacity:1" fill="#37afb5" d="M 380.5,33.5 C 380.5,39.1667 380.5,44.8333 380.5,50.5C 376.167,50.5 371.833,50.5 367.5,50.5C 367.666,44.4908 367.499,38.4908 367,32.5C 365.951,31.4829 364.784,31.3162 363.5,32C 362.848,39.5987 362.182,47.0987 361.5,54.5C 361.5,53.1667 361.5,51.8333 361.5,50.5C 357.5,50.5 353.5,50.5 349.5,50.5C 349.5,44.8333 349.5,39.1667 349.5,33.5C 350.873,33.6567 352.207,33.49 353.5,33C 361.844,20.1881 369.844,20.5215 377.5,34C 378.577,34.4696 379.577,34.3029 380.5,33.5 Z"/></g>
<g><path style="opacity:1" fill="#8ad3d5" d="M 107.5,50.5 C 107.5,51.8333 107.5,53.1667 107.5,54.5C 106.669,43.3407 106.169,32.0074 106,20.5C 101.848,18.5081 100.015,19.8415 100.5,24.5C 97.0312,21.9633 97.0312,19.1299 100.5,16C 103.669,15.0218 106.503,15.5218 109,17.5C 107.686,28.3141 107.186,39.3141 107.5,50.5 Z"/></g>
<g><path style="opacity:1" fill="#48b6bd" d="M 39.5,30.5 C 38.3052,30.3225 37.1385,29.9891 36,29.5C 29.7246,22.1912 22.2246,20.6912 13.5,25C 10.9186,28.0884 7.91856,30.5884 4.5,32.5C 10.3151,18.6156 19.9818,15.1156 33.5,22C 36.3806,24.2787 38.3806,27.112 39.5,30.5 Z"/></g>
<g><path style="opacity:1" fill="#48b7bd" d="M 80.5,32.5 C 77.6653,29.8347 74.6653,27.3347 71.5,25C 65.9978,22.1047 60.3311,21.7714 54.5,24C 51.5876,27.419 48.2543,30.2524 44.5,32.5C 47.3448,23.4932 53.5114,18.8265 63,18.5C 71.9194,19.2479 77.7528,23.9145 80.5,32.5 Z"/></g>
<g><path style="opacity:1" fill="#35a8af" d="M 330.5,36.5 C 329.021,31.5437 326.021,30.377 321.5,33C 320.748,33.6708 320.414,34.5041 320.5,35.5C 316.693,35.9052 315.86,34.2385 318,30.5C 323,25.1667 328,25.1667 333,30.5C 333.667,32.1667 333.667,33.8333 333,35.5C 332.329,36.2524 331.496,36.5858 330.5,36.5 Z"/></g>
<g><path style="opacity:1" fill="#34a2a8" d="M 67.5,35.5 C 64.3094,30.2177 60.9761,30.2177 57.5,35.5C 55.8653,31.1476 57.532,28.8143 62.5,28.5C 66.0897,28.4575 68.423,30.1242 69.5,33.5C 69.1445,34.5223 68.4778,35.189 67.5,35.5 Z"/></g>
<g><path style="opacity:1" fill="#8bcccd" d="M 235.5,30.5 C 237.335,31.1223 238.502,32.4556 239,34.5C 241.146,39.7736 242.98,45.1069 244.5,50.5C 249.965,49.7727 254.965,50.7727 259.5,53.5C 254.684,54.6497 249.684,54.8163 244.5,54C 240.796,46.4264 237.796,38.5931 235.5,30.5 Z"/></g>
<g><path style="opacity:1" fill="#309aa0" d="M 36.5,33.5 C 30.9559,33.748 25.6226,33.0813 20.5,31.5C 24.741,30.3547 29.741,30.188 35.5,31C 36.5,31.3333 37.5,31.6667 38.5,32C 37.5842,32.2784 36.9175,32.7784 36.5,33.5 Z"/></g>
<g><path style="opacity:0.806" fill="#73ced2" d="M 67.5,35.5 C 67.1179,41.7502 64.2846,43.4168 59,40.5C 57.9914,38.9751 57.4914,37.3084 57.5,35.5C 60.9761,30.2177 64.3094,30.2177 67.5,35.5 Z M 62.5,33.5 C 58.542,35.9287 58.7087,37.9287 63,39.5C 66.3773,37.2424 66.2106,35.2424 62.5,33.5 Z"/></g>
<g><path style="opacity:0.806" fill="#73cfd3" d="M 330.5,36.5 C 330.373,39.7801 328.706,41.4468 325.5,41.5C 321.674,41.3382 320.007,39.3382 320.5,35.5C 320.414,34.5041 320.748,33.6708 321.5,33C 326.021,30.377 329.021,31.5437 330.5,36.5 Z M 324.5,33.5 C 321.758,35.6994 321.924,37.6994 325,39.5C 329.283,37.5121 329.116,35.5121 324.5,33.5 Z"/></g>
<g><path style="opacity:1" fill="#8ecfcf" d="M 155.5,31.5 C 155.843,33.4832 155.176,34.8166 153.5,35.5C 152.666,34.2521 151.333,33.5854 149.5,33.5C 148.167,33.6667 146.833,33.8333 145.5,34C 144.944,34.3826 144.611,34.8826 144.5,35.5C 143.5,35.8333 142.833,36.5 142.5,37.5C 140.29,36.5449 139.957,35.0449 141.5,33C 146.085,31.7748 150.752,31.2748 155.5,31.5 Z"/></g>
<g><path style="opacity:1" fill="#83bebe" d="M 153.5,35.5 C 150.5,35.5 147.5,35.5 144.5,35.5C 144.611,34.8826 144.944,34.3826 145.5,34C 146.833,33.8333 148.167,33.6667 149.5,33.5C 151.333,33.5854 152.666,34.2521 153.5,35.5 Z"/></g>
<g><path style="opacity:1" fill="#35a8af" d="M 4.5,36.5 C 5.64314,36.9081 6.64314,37.5748 7.5,38.5C 9.60028,43.2217 12.9336,46.7217 17.5,49C 24.48,50.9186 30.1467,49.0853 34.5,43.5C 36.0709,42.6906 37.7376,42.3573 39.5,42.5C 38.6167,45.7043 36.9501,48.3709 34.5,50.5C 34.0831,49.8761 33.4164,49.5427 32.5,49.5C 25.5545,53.3881 18.5545,53.3881 11.5,49.5C 10.8933,49.6236 10.56,49.9569 10.5,50.5C 6.38242,46.8349 4.38242,42.1682 4.5,36.5 Z"/></g>
<g><path style="opacity:1" fill="#92d5d5" d="M 162.5,24.5 C 163.825,31.1723 166.325,37.5056 170,43.5C 174.504,48.5418 180.17,50.8752 187,50.5C 193.013,50.8426 198.013,48.8426 202,44.5C 203.586,41.6595 205.42,38.9928 207.5,36.5C 208.325,35.6143 209.325,35.281 210.5,35.5C 210.405,37.7857 209.738,39.7857 208.5,41.5C 205.187,44.4778 201.853,47.4778 198.5,50.5C 191.231,52.9507 183.898,53.1174 176.5,51C 172.393,47.8973 168.56,44.3973 165,40.5C 164.601,40.7284 164.435,41.0618 164.5,41.5C 161.78,36.0172 161.113,30.3506 162.5,24.5 Z"/></g>
<g><path style="opacity:1" fill="#48b7bd" d="M 39.5,41.5 C 35.774,41.1774 32.1073,41.5108 28.5,42.5C 25.8491,45.4706 22.6824,46.1373 19,44.5C 18.187,42.5643 17.687,40.5643 17.5,38.5C 20.8457,43.6171 24.179,43.6171 27.5,38.5C 31.7828,37.5078 36.1161,37.1744 40.5,37.5C 40.7678,39.099 40.4345,40.4324 39.5,41.5 Z"/></g>
<g><path style="opacity:1" fill="#59bfc5" d="M 279.5,40.5 C 280.5,40.5 281.5,40.5 282.5,40.5C 282.819,45.3633 282.486,50.03 281.5,54.5C 281.5,53.5 281.5,52.5 281.5,51.5C 281.964,47.4975 281.298,43.8309 279.5,40.5 Z"/></g>
<g><path style="opacity:1" fill="#8fd2d2" d="M 129.5,43.5 C 132.438,45.9118 135.771,47.7451 139.5,49C 144.823,49.4994 150.156,49.666 155.5,49.5C 155.216,47.5853 155.549,45.9187 156.5,44.5C 156.813,48.0419 156.479,51.3752 155.5,54.5C 155.119,53.0689 154.119,52.2355 152.5,52C 145.223,52.1521 138.223,50.9854 131.5,48.5C 130.463,47.0697 129.796,45.403 129.5,43.5 Z"/></g>
<g><path style="opacity:1" fill="#349fa5" d="M 281.5,51.5 C 281.5,52.5 281.5,53.5 281.5,54.5C 275.065,55.1146 270.065,52.7813 266.5,47.5C 266.56,46.9569 266.893,46.6236 267.5,46.5C 271.757,49.159 276.424,50.8256 281.5,51.5 Z"/></g>
<g><path style="opacity:1" fill="#36a2a8" d="M 367.5,50.5 C 371.833,50.5 376.167,50.5 380.5,50.5C 380.5,51.8333 380.5,53.1667 380.5,54.5C 376.167,54.5 371.833,54.5 367.5,54.5C 367.5,53.1667 367.5,51.8333 367.5,50.5 Z"/></g>
<g><path style="opacity:1" fill="#88c7c8" d="M 86.5,50.5 C 91.1667,50.5 95.8333,50.5 100.5,50.5C 100.5,51.8333 100.5,53.1667 100.5,54.5C 95.8333,54.5 91.1667,54.5 86.5,54.5C 86.5,53.1667 86.5,51.8333 86.5,50.5 Z"/></g>
<g><path style="opacity:1" fill="#87c7c8" d="M 107.5,50.5 C 112.167,50.5 116.833,50.5 121.5,50.5C 121.5,51.8333 121.5,53.1667 121.5,54.5C 116.833,54.5 112.167,54.5 107.5,54.5C 107.5,53.1667 107.5,51.8333 107.5,50.5 Z"/></g>
<g><path style="opacity:1" fill="#87c7c8" d="M 218.5,50.5 C 223.167,50.5 227.833,50.5 232.5,50.5C 232.5,51.8333 232.5,53.1667 232.5,54.5C 227.833,54.5 223.167,54.5 218.5,54.5C 218.5,53.1667 218.5,51.8333 218.5,50.5 Z"/></g>
<g><path style="opacity:1" fill="#36a1a7" d="M 288.5,50.5 C 292.5,50.5 296.5,50.5 300.5,50.5C 300.5,51.8333 300.5,53.1667 300.5,54.5C 296.5,54.5 292.5,54.5 288.5,54.5C 288.5,53.1667 288.5,51.8333 288.5,50.5 Z"/></g>
<g><path style="opacity:1" fill="#36a1a7" d="M 349.5,50.5 C 353.5,50.5 357.5,50.5 361.5,50.5C 361.5,51.8333 361.5,53.1667 361.5,54.5C 357.5,54.5 353.5,54.5 349.5,54.5C 349.5,53.1667 349.5,51.8333 349.5,50.5 Z"/></g>
<g><path style="opacity:1" fill="#329ba1" d="M 10.5,50.5 C 10.56,49.9569 10.8933,49.6236 11.5,49.5C 18.5545,53.3881 25.5545,53.3881 32.5,49.5C 33.4164,49.5427 34.0831,49.8761 34.5,50.5C 26.5,55.8333 18.5,55.8333 10.5,50.5 Z"/></g>
<g><path style="opacity:1" fill="#339da3" d="M 78.5,45.5 C 75.0048,51.5853 69.6714,54.5853 62.5,54.5C 55.9304,54.7159 50.9304,52.0493 47.5,46.5C 47.4346,46.0618 47.6012,45.7284 48,45.5C 58.3381,53.709 68.3381,53.3756 78,44.5C 78.3988,44.7284 78.5654,45.0618 78.5,45.5 Z"/></g>
<g><path style="opacity:1" fill="#82c1c1" d="M 131.5,48.5 C 138.223,50.9854 145.223,52.1521 152.5,52C 154.119,52.2355 155.119,53.0689 155.5,54.5C 148.296,55.055 141.296,54.2217 134.5,52C 133.29,50.9609 132.29,49.7942 131.5,48.5 Z"/></g>
<g><path style="opacity:1" fill="#339fa5" d="M 342.5,42.5 C 338.18,52.6602 330.514,56.4935 319.5,54C 313.584,52.252 309.917,48.4187 308.5,42.5C 308.435,42.0618 308.601,41.7284 309,41.5C 319.967,54.6284 330.967,54.6284 342,41.5C 342.399,41.7284 342.565,42.0618 342.5,42.5 Z"/></g>
<g><path style="opacity:1" fill="#84c2c2" d="M 208.5,41.5 C 204.437,51.2995 196.937,55.9661 186,55.5C 176.006,54.9791 168.839,50.3124 164.5,41.5C 164.435,41.0618 164.601,40.7284 165,40.5C 168.56,44.3973 172.393,47.8973 176.5,51C 183.898,53.1174 191.231,52.9507 198.5,50.5C 201.853,47.4778 205.187,44.4778 208.5,41.5 Z"/></g>
</svg>
